<svg xmlns="http://www.w3.org/2000/svg" xmlns:xlink="http://www.w3.org/1999/xlink" version="1.1" width="1000" height="1000" viewBox="0 0 1000 1000" xml:space="preserve">
<desc>Created with Fabric.js 3.5.0</desc>
<defs>
</defs>
<rect x="0" y="0" width="100%" height="100%" fill="rgba(255,255,255,0)"/>
<g transform="matrix(0.6482 -0.7615 0.7615 0.6482 58.3874 547.3655)" style="" id="724952">
		
<path xml:space="preserve" font-family="Teko" font-size="108" font-style="normal" font-weight="bold" style="stroke: none; stroke-width: 1; stroke-dasharray: none; stroke-linecap: butt; stroke-dashoffset: 0; stroke-linejoin: miter; stroke-miterlimit: 4; is-custom-font: none; font-file-url: none; fill: rgb(70,191,46); fill-rule: nonzero; opacity: 1; white-space: pre;" d="M-22.79-35.41L22.79-35.41L22.79-21.91L9.40-21.91L9.40 33.93L-9.50 33.93L-9.50-21.91L-22.79-21.91L-22.79-35.41Z"/></g>
<g transform="matrix(0.7455 -0.6665 0.6665 0.7455 95.2555 500.9832)" style="" id="575234">
		
<path xml:space="preserve" font-family="Teko" font-size="108" font-style="normal" font-weight="bold" style="stroke: none; stroke-width: 1; stroke-dasharray: none; stroke-linecap: butt; stroke-dashoffset: 0; stroke-linejoin: miter; stroke-miterlimit: 4; is-custom-font: none; font-file-url: none; fill: rgb(70,191,46); fill-rule: nonzero; opacity: 1; white-space: pre;" d="M-3.35 9.30L-4.54 9.30L-4.54 33.93L-23.44 33.93L-23.44-35.41L8.64-35.41Q24.52-35.41 24.52-22.02L24.52-22.02L24.52-4.09Q24.52 6.17 15.23 8.55L15.23 8.55L27.97 33.93L7.67 33.93L-3.35 9.30ZM2.92-21.91L2.92-21.91L-4.54-21.91L-4.54-3.55L2.92-3.55Q5.62-3.55 5.62-5.92L5.62-5.92L5.62-19.53Q5.62-21.91 2.92-21.91Z"/></g>
<g transform="matrix(0.8202 -0.5721 0.5721 0.8202 143.2703 462.1286)" style="" id="736681">
		
<path xml:space="preserve" font-family="Teko" font-size="108" font-style="normal" font-weight="bold" style="stroke: none; stroke-width: 1; stroke-dasharray: none; stroke-linecap: butt; stroke-dashoffset: 0; stroke-linejoin: miter; stroke-miterlimit: 4; is-custom-font: none; font-file-url: none; fill: rgb(70,191,46); fill-rule: nonzero; opacity: 1; white-space: pre;" d="M-1.03 5.74L-1.03 20.43L22.63 20.43L22.63 33.93L-19.93 33.93L-19.93-35.41L21.65-35.41L21.65-21.91L-1.03-21.91L-1.03-7.76L18.52-7.76L18.52 5.74L-1.03 5.74Z"/></g>
<g transform="matrix(0.9755 -0.2198 0.2198 0.9755 302.8269 389.5824)" style="" id="911373">
		
<path xml:space="preserve" font-family="Teko" font-size="108" font-style="normal" font-weight="bold" style="stroke: none; stroke-width: 1; stroke-dasharray: none; stroke-linecap: butt; stroke-dashoffset: 0; stroke-linejoin: miter; stroke-miterlimit: 4; is-custom-font: none; font-file-url: none; fill: rgb(70,191,46); fill-rule: nonzero; opacity: 1; white-space: pre;" d="M7.18 1.64L7.18-35.41L24.46-35.41L24.46 33.93L8.26 33.93L-7.18-2.47L-7.18 33.93L-24.46 33.93L-24.46-35.41L-8.26-35.41L7.18 1.64Z"/></g>
<g transform="matrix(0.8541 -0.5202 0.5202 0.8541 186.5721 430.9256)" style="" id="662585">
		
<path xml:space="preserve" font-family="Teko" font-size="108" font-style="normal" font-weight="bold" style="stroke: none; stroke-width: 1; stroke-dasharray: none; stroke-linecap: butt; stroke-dashoffset: 0; stroke-linejoin: miter; stroke-miterlimit: 4; is-custom-font: none; font-file-url: none; fill: rgb(70,191,46); fill-rule: nonzero; opacity: 1; white-space: pre;" d="M-1.03 5.74L-1.03 20.43L22.63 20.43L22.63 33.93L-19.93 33.93L-19.93-35.41L21.65-35.41L21.65-21.91L-1.03-21.91L-1.03-7.76L18.52-7.76L18.52 5.74L-1.03 5.74Z"/></g>
<g transform="matrix(0.9936 -0.1126 0.1126 0.9936 417.3003 369.2565)" style="" id="845317">
		
<path xml:space="preserve" font-family="Teko" font-size="108" font-style="normal" font-weight="bold" style="stroke: none; stroke-width: 1; stroke-dasharray: none; stroke-linecap: butt; stroke-dashoffset: 0; stroke-linejoin: miter; stroke-miterlimit: 4; is-custom-font: none; font-file-url: none; fill: rgb(70,191,46); fill-rule: nonzero; opacity: 1; white-space: pre;" d="M-22.90 33.93L-22.90-35.41L9.18-35.41Q25.06-35.41 25.06-22.02L25.06-22.02L25.06-2.14Q25.06 11.25 9.18 11.25L9.18 11.25L-4.00 11.25L-4.00 33.93L-22.90 33.93ZM6.16-4.63L6.16-4.63L6.16-19.53Q6.16-21.91 3.46-21.91L3.46-21.91L-4.00-21.91L-4.00-2.25L3.46-2.25Q6.16-2.25 6.16-4.63Z"/></g>
<g transform="matrix(0.9896 -0.1436 0.1436 0.9896 360.3937 378.3084)" style="" id="857436">
		
<path xml:space="preserve" font-family="Teko" font-size="108" font-style="normal" font-weight="bold" style="stroke: none; stroke-width: 1; stroke-dasharray: none; stroke-linecap: butt; stroke-dashoffset: 0; stroke-linejoin: miter; stroke-miterlimit: 4; is-custom-font: none; font-file-url: none; fill: rgb(70,191,46); fill-rule: nonzero; opacity: 1; white-space: pre;" d="M4.37 18.05L4.37 18.05L4.37 8.22Q4.37 5.85 1.67 5.85L1.67 5.85L-8.69 5.85Q-16.69 5.85-19.98 2.34Q-23.27-1.17-23.27-7.76L-23.27-7.76L-23.27-22.02Q-23.27-35.41-7.51-35.41L-7.51-35.41L7.29-35.41Q23.06-35.41 23.06-22.02L23.06-22.02L23.06-13.70L4.16-13.70L4.16-19.53Q4.16-21.91 1.46-21.91L1.46-21.91L-1.67-21.91Q-4.37-21.91-4.37-19.53L-4.37-19.53L-4.37-9.27Q-4.37-6.90-1.67-6.90L-1.67-6.90L8.48-6.90Q16.47-6.90 19.87-3.55Q23.27-0.20 23.27 6.28L23.27 6.28L23.27 20.54Q23.27 33.93 7.51 33.93L7.51 33.93L-7.18 33.93Q-23.06 33.93-23.06 20.54L-23.06 20.54L-23.06 12.22L-4.16 12.22L-4.16 18.05Q-4.16 20.43-1.46 20.43L-1.46 20.43L1.67 20.43Q4.37 20.43 4.37 18.05Z"/></g>
<g transform="matrix(0.9698 -0.2438 0.2438 0.9698 257.2954 399.8204)" style="" id="467363">
		
<path xml:space="preserve" font-family="Teko" font-size="108" font-style="normal" font-weight="bold" style="stroke: none; stroke-width: 1; stroke-dasharray: none; stroke-linecap: butt; stroke-dashoffset: 0; stroke-linejoin: miter; stroke-miterlimit: 4; is-custom-font: none; font-file-url: none; fill: rgb(70,191,46); fill-rule: nonzero; opacity: 1; white-space: pre;" d="M-9.45 33.93L-9.45-35.41L9.45-35.41L9.45 33.93L-9.45 33.93Z"/></g>
<g transform="matrix(1 0 0 1 470.5118 365.3434)" style="" id="738730">
		
<path xml:space="preserve" font-family="Teko" font-size="108" font-style="normal" font-weight="bold" style="stroke: none; stroke-width: 1; stroke-dasharray: none; stroke-linecap: butt; stroke-dashoffset: 0; stroke-linejoin: miter; stroke-miterlimit: 4; is-custom-font: none; font-file-url: none; fill: rgb(70,191,46); fill-rule: nonzero; opacity: 1; white-space: pre;" d="M-1.03 5.74L-1.03 20.43L22.63 20.43L22.63 33.93L-19.93 33.93L-19.93-35.41L21.65-35.41L21.65-21.91L-1.03-21.91L-1.03-7.76L18.52-7.76L18.52 5.74L-1.03 5.74Z"/></g>
<g transform="matrix(0.9974 0.0717 -0.0717 0.9974 578.8238 367.5905)" style="" id="184156">
		
<path xml:space="preserve" font-family="Teko" font-size="108" font-style="normal" font-weight="bold" style="stroke: none; stroke-width: 1; stroke-dasharray: none; stroke-linecap: butt; stroke-dashoffset: 0; stroke-linejoin: miter; stroke-miterlimit: 4; is-custom-font: none; font-file-url: none; fill: rgb(70,191,46); fill-rule: nonzero; opacity: 1; white-space: pre;" d="M-22.79-35.41L22.79-35.41L22.79-21.91L9.40-21.91L9.40 33.93L-9.50 33.93L-9.50-21.91L-22.79-21.91L-22.79-35.41Z"/></g>
<g transform="matrix(1 0 0 1 524.6255 365.3434)" style="" id="686574">
		
<path xml:space="preserve" font-family="Teko" font-size="108" font-style="normal" font-weight="bold" style="stroke: none; stroke-width: 1; stroke-dasharray: none; stroke-linecap: butt; stroke-dashoffset: 0; stroke-linejoin: miter; stroke-miterlimit: 4; is-custom-font: none; font-file-url: none; fill: rgb(70,191,46); fill-rule: nonzero; opacity: 1; white-space: pre;" d="M24.03-22.02L24.03-9.49L5.13-9.49L5.13-20.61Q5.13-22.99 2.43-22.99L2.43-22.99L-1.35-22.99Q-4.05-22.99-4.05-20.61L-4.05-20.61L-4.05 19.13Q-4.05 21.51-1.35 21.51L-1.35 21.51L2.43 21.51Q5.13 21.51 5.13 19.13L5.13 19.13L5.13 8.44L24.03 8.44L24.03 20.54Q24.03 33.93 8.15 33.93L8.15 33.93L-7.07 33.93Q-22.95 33.93-22.95 20.54L-22.95 20.54L-22.95-22.02Q-22.95-35.41-7.07-35.41L-7.07-35.41L8.15-35.41Q24.03-35.41 24.03-22.02L24.03-22.02Z"/></g>
<g transform="matrix(0.9921 0.1254 -0.1254 0.9921 620.7491 371.8611)" style="" id="449897">
		
<path xml:space="preserve" font-family="Teko" font-size="108" font-style="normal" font-weight="bold" style="stroke: none; stroke-width: 1; stroke-dasharray: none; stroke-linecap: butt; stroke-dashoffset: 0; stroke-linejoin: miter; stroke-miterlimit: 4; is-custom-font: none; font-file-url: none; fill: rgb(70,191,46); fill-rule: nonzero; opacity: 1; white-space: pre;" d="M-9.45 33.93L-9.45-35.41L9.45-35.41L9.45 33.93L-9.45 33.93Z"/></g>
<g transform="matrix(0.9753 0.221 -0.221 0.9753 670.0622 380.3845)" style="" id="858895">
		
<path xml:space="preserve" font-family="Teko" font-size="108" font-style="normal" font-weight="bold" style="stroke: none; stroke-width: 1; stroke-dasharray: none; stroke-linecap: butt; stroke-dashoffset: 0; stroke-linejoin: miter; stroke-miterlimit: 4; is-custom-font: none; font-file-url: none; fill: rgb(70,191,46); fill-rule: nonzero; opacity: 1; white-space: pre;" d="M-7.99-35.41L-7.99-35.41L7.99-35.41Q23.87-35.41 23.87-22.02L23.87-22.02L23.87 20.54Q23.87 33.93 7.99 33.93L7.99 33.93L-7.99 33.93Q-23.87 33.93-23.87 20.54L-23.87 20.54L-23.87-22.02Q-23.87-35.41-7.99-35.41ZM4.97 18.05L4.97 18.05L4.97-19.53Q4.97-21.91 2.27-21.91L2.27-21.91L-2.27-21.91Q-4.97-21.91-4.97-19.53L-4.97-19.53L-4.97 18.05Q-4.97 20.43-2.27 20.43L-2.27 20.43L2.27 20.43Q4.97 20.43 4.97 18.05Z"/></g>
<g transform="matrix(0.9557 0.2942 -0.2942 0.9557 728.5711 398.7597)" style="" id="361245">
		
<path xml:space="preserve" font-family="Teko" font-size="108" font-style="normal" font-weight="bold" style="stroke: none; stroke-width: 1; stroke-dasharray: none; stroke-linecap: butt; stroke-dashoffset: 0; stroke-linejoin: miter; stroke-miterlimit: 4; is-custom-font: none; font-file-url: none; fill: rgb(70,191,46); fill-rule: nonzero; opacity: 1; white-space: pre;" d="M7.18 1.64L7.18-35.41L24.46-35.41L24.46 33.93L8.26 33.93L-7.18-2.47L-7.18 33.93L-24.46 33.93L-24.46-35.41L-8.26-35.41L7.18 1.64Z"/></g>
<g transform="matrix(0.8826 0.4701 -0.4701 0.8826 821.057 437.8449)" style="" id="658881">
		
<path xml:space="preserve" font-family="Teko" font-size="108" font-style="normal" font-weight="bold" style="stroke: none; stroke-width: 1; stroke-dasharray: none; stroke-linecap: butt; stroke-dashoffset: 0; stroke-linejoin: miter; stroke-miterlimit: 4; is-custom-font: none; font-file-url: none; fill: rgb(70,191,46); fill-rule: nonzero; opacity: 1; white-space: pre;" d="M27.86-35.41L14.36-1.50L27.97 33.93L7.67 33.93L-5.29-1.50L7.56-35.41L27.86-35.41ZM-5.40 33.93L-24.30 33.93L-24.30-35.41L-5.40-35.41L-5.40 33.93Z"/></g>
<g transform="matrix(0.86 0.5102 -0.5102 0.86 867.7101 461.2066)" style="" id="78052">
		
<path xml:space="preserve" font-family="Teko" font-size="108" font-style="normal" font-weight="bold" style="stroke: none; stroke-width: 1; stroke-dasharray: none; stroke-linecap: butt; stroke-dashoffset: 0; stroke-linejoin: miter; stroke-miterlimit: 4; is-custom-font: none; font-file-url: none; fill: rgb(70,191,46); fill-rule: nonzero; opacity: 1; white-space: pre;" d="M-9.45 33.93L-9.45-35.41L9.45-35.41L9.45 33.93L-9.45 33.93Z"/></g>
<g transform="matrix(0.8145 0.5802 -0.5802 0.8145 903.8299 486.3938)" style="" id="31673">
		
<path xml:space="preserve" font-family="Teko" font-size="108" font-style="normal" font-weight="bold" style="stroke: none; stroke-width: 1; stroke-dasharray: none; stroke-linecap: butt; stroke-dashoffset: 0; stroke-linejoin: miter; stroke-miterlimit: 4; is-custom-font: none; font-file-url: none; fill: rgb(70,191,46); fill-rule: nonzero; opacity: 1; white-space: pre;" d="M-22.79-35.41L22.79-35.41L22.79-21.91L9.40-21.91L9.40 33.93L-9.50 33.93L-9.50-21.91L-22.79-21.91L-22.79-35.41Z"/></g>
<g transform="matrix(1 0 0 1 441.053 547.3654)" style="" id="980968">
		
<path xml:space="preserve" font-family="Teko" font-size="108" font-style="normal" font-weight="bold" style="stroke: none; stroke-width: 1; stroke-dasharray: none; stroke-linecap: butt; stroke-dashoffset: 0; stroke-linejoin: miter; stroke-miterlimit: 4; is-custom-font: none; font-file-url: none; fill: rgb(70,191,46); fill-rule: nonzero; opacity: 1; white-space: pre;" d="M29.32 33.93L10.31 33.93L8.15 23.56L-8.48 23.56L-10.75 33.93L-29.32 33.93L-11.50-35.41L11.50-35.41L29.32 33.93ZM-0.05-14.78L-5.56 10.17L5.24 10.17L-0.05-14.78Z"/></g>
<g transform="matrix(1 0 0 1 500.9921 547.3654)" style="" id="366777">
		
<path xml:space="preserve" font-family="Teko" font-size="108" font-style="normal" font-weight="bold" style="stroke: none; stroke-width: 1; stroke-dasharray: none; stroke-linecap: butt; stroke-dashoffset: 0; stroke-linejoin: miter; stroke-miterlimit: 4; is-custom-font: none; font-file-url: none; fill: rgb(70,191,46); fill-rule: nonzero; opacity: 1; white-space: pre;" d="M-22.90 33.93L-22.90-35.41L9.18-35.41Q25.06-35.41 25.06-22.02L25.06-22.02L25.06-2.14Q25.06 11.25 9.18 11.25L9.18 11.25L-4.00 11.25L-4.00 33.93L-22.90 33.93ZM6.16-4.63L6.16-4.63L6.16-19.53Q6.16-21.91 3.46-21.91L3.46-21.91L-4.00-21.91L-4.00-2.25L3.46-2.25Q6.16-2.25 6.16-4.63Z"/></g>
<g transform="matrix(1 0 0 1 558.947 547.3654)" style="" id="655238">
		
<path xml:space="preserve" font-family="Teko" font-size="108" font-style="normal" font-weight="bold" style="stroke: none; stroke-width: 1; stroke-dasharray: none; stroke-linecap: butt; stroke-dashoffset: 0; stroke-linejoin: miter; stroke-miterlimit: 4; is-custom-font: none; font-file-url: none; fill: rgb(70,191,46); fill-rule: nonzero; opacity: 1; white-space: pre;" d="M-22.90 33.93L-22.90-35.41L9.18-35.41Q25.06-35.41 25.06-22.02L25.06-22.02L25.06-2.14Q25.06 11.25 9.18 11.25L9.18 11.25L-4.00 11.25L-4.00 33.93L-22.90 33.93ZM6.16-4.63L6.16-4.63L6.16-19.53Q6.16-21.91 3.46-21.91L3.46-21.91L-4.00-21.91L-4.00-2.25L3.46-2.25Q6.16-2.25 6.16-4.63Z"/></g>
</svg>